# xmcd CD database file
#
# Track frame offsets:
#	150
#	11797
#	26317
#	40227
#	54407
#	70727
#	86242
#	104997
#	117130
#	129177
#	141632
#	154650
#
# Disc length: 2296 seconds
#
# Revision: 0
# Processed by: cddbd v1.5.2PL0 Copyright (c) Steve Scherf et al.
# Submitted via: CDex 1.70beta2
#
DISCID=a408f60c
DTITLE=Jet Stream - Jet Stream 3 
DYEAR=1900
DGENRE=Lounge
TTITLE0=ミスター・ロンリー (城達也 ナレーション)
TTITLE1=未知との遭遇
TTITLE2=テキサスの黄色いバラ
TTITLE3=ルート66
TTITLE4=君住む街で
TTITLE5=朝日のようにさわやかに
TTITLE6=コパカバーナ (城達也 ナレーション)
TTITLE7=太陽は燃えている
TTITLE8=太陽がいっぱい
TTITLE9=黄色いボタン
TTITLE10=マシュケナダ
TTITLE11=夢幻飛行 (城達也 ナレーション)
EXTD=
EXTT0=
EXTT1=
EXTT2=
EXTT3=
EXTT4=
EXTT5=
EXTT6=
EXTT7=
EXTT8=
EXTT9=
EXTT10=
EXTT11=
PLAYORDER=
